<svg width="161" height="26" viewBox="0 0 161 26" fill="none" xmlns="http://www.w3.org/2000/svg">
<path fill-rule="evenodd" clip-rule="evenodd" d="M41.024 3.91026H45.0542V13.1474L50.8243 3.91026H54.8544V19.609H50.8243V11.0064L45.0542 19.609H41.024V3.91026ZM126.814 19.609H122.528V15.3141H126.814V19.609ZM150.157 3.91026H154.462V5.08333C158.115 5.3141 161 8.12821 161 11.5641C161 15 158.115 17.8141 154.462 18.0385V19.609H150.157V18.0385C146.504 17.8141 143.619 15 143.619 11.5641C143.619 8.12821 146.504 5.3141 150.157 5.08333V3.91026ZM154.462 8.30128V14.8205C155.729 14.3141 156.618 13.0449 156.618 11.5641C156.618 10.0769 155.729 8.80769 154.462 8.30128ZM150.157 14.8205V8.30128C148.897 8.80769 148.001 10.0769 148.001 11.5641C148.001 13.0449 148.897 14.3141 150.157 14.8205ZM129.655 3.91026H134.248H137.555C139.845 3.91026 141.95 5.78846 141.95 8.08333V9.58333C141.95 11.8782 139.845 13.7564 137.555 13.7564H134.248V19.609H129.655V13.7564V3.91026ZM134.248 7.07051H135.981C136.934 7.07051 137.715 7.85256 137.715 8.80769V8.85897C137.715 9.8141 136.934 10.5962 135.981 10.5962H134.248V7.07051ZM109.043 3.91026H113.637H120.673V7.76923H113.637V19.609H109.043V7.76923V3.91026ZM92.1554 3.91026H96.742V9.5641H101.54V3.91026H106.133V19.609H101.54V13.3974H96.742V19.609H92.1554V3.91026ZM75.1585 3.91026H79.195V13.1474L84.9587 3.91026H88.9888V19.609H84.9587V11.0064L79.195 19.609H75.1585V3.91026ZM28.0637 19.6346L28.8633 16.9231H34.1025L34.9021 19.6346H39.4952L33.885 3.98718H31.4861H29.0872L23.4706 19.6346H28.0637ZM29.8101 13.7051L31.4861 8.02564L33.1557 13.7051H29.8101ZM10.9773 20.4551L5.48864 22.6538L10.9773 26L16.4723 22.6538L10.9773 20.4551ZM21.865 3.60256V19.5064L16.9713 23.4936V13.4423L11.1052 18.6346L4.89371 13.4423V23.4936L0 19.5064V3.60256L11.1052 11.1218L21.865 3.60256ZM47.9392 3.01923C49.7624 3.01923 51.2848 1.72436 51.6367 0H49.999C49.6856 0.833333 48.8796 1.42949 47.9392 1.42949C46.9988 1.42949 46.1928 0.833333 45.8858 0H44.2417C44.5936 1.72436 46.1161 3.01923 47.9392 3.01923ZM58.0145 3.91026H62.6076V9.5641H67.4053V3.91026H71.9984V19.609H67.4053V13.3974H62.6076V19.609H58.0145V3.91026Z" fill="#BD0102"/>
</svg>
