<svg width="10" height="10" viewBox="0 0 10 10" fill="none" xmlns="http://www.w3.org/2000/svg">
<path opacity="0.5" d="M8.92401 5.98366C8.65223 5.98366 8.41856 5.88755 8.22301 5.69531C8.02746 5.49976 7.92969 5.26444 7.92969 4.98935C7.92969 4.71757 8.02746 4.48556 8.22301 4.29332C8.41856 4.09777 8.65223 4 8.92401 4C9.19579 4 9.42945 4.09777 9.625 4.29332C9.82055 4.48556 9.91832 4.71757 9.91832 4.98935C9.91832 5.17164 9.87192 5.33901 9.77912 5.49148C9.68963 5.64062 9.57031 5.75994 9.42116 5.84943C9.27202 5.93892 9.1063 5.98366 8.92401 5.98366Z" fill="#111111"/>
<path opacity="0.5" d="M4.95916 5.98366C4.68738 5.98366 4.45372 5.88755 4.25817 5.69531C4.06262 5.49976 3.96484 5.26444 3.96484 4.98935C3.96484 4.71757 4.06262 4.48556 4.25817 4.29332C4.45372 4.09777 4.68738 4 4.95916 4C5.23094 4 5.46461 4.09777 5.66016 4.29332C5.85571 4.48556 5.95348 4.71757 5.95348 4.98935C5.95348 5.17164 5.90708 5.33901 5.81428 5.49148C5.72479 5.64062 5.60547 5.75994 5.45632 5.84943C5.30717 5.93892 5.14145 5.98366 4.95916 5.98366Z" fill="#111111"/>
<path opacity="0.5" d="M0.994318 5.98366C0.722538 5.98366 0.488873 5.88755 0.293324 5.69531C0.0977747 5.49976 0 5.26444 0 4.98935C0 4.71757 0.0977747 4.48556 0.293324 4.29332C0.488873 4.09777 0.722538 4 0.994318 4C1.2661 4 1.49976 4.09777 1.69531 4.29332C1.89086 4.48556 1.98864 4.71757 1.98864 4.98935C1.98864 5.17164 1.94224 5.33901 1.84943 5.49148C1.75994 5.64062 1.64063 5.75994 1.49148 5.84943C1.34233 5.93892 1.17661 5.98366 0.994318 5.98366Z" fill="#111111"/>
</svg>
